# Blender v2.83.5 OBJ File: 'Chevron.blend'
# www.blender.org
mtllib Chevron.mtl
o Slash_Cube.001
v -1.000000 -5.843368 1.488305
v -1.000000 -5.432944 2.615937
v -1.000000 5.432944 -2.615937
v -1.000000 5.843368 -1.488305
v 1.000000 -5.843368 1.488305
v 1.000000 -5.432944 2.615937
v 1.000000 5.432944 -2.615937
v 1.000000 5.843368 -1.488305
vt 0.625000 0.000000
vt 0.375000 0.250000
vt 0.375000 0.000000
vt 0.625000 0.250000
vt 0.375000 0.500000
vt 0.625000 0.500000
vt 0.375000 0.750000
vt 0.625000 0.750000
vt 0.375000 1.000000
vt 0.125000 0.750000
vt 0.125000 0.500000
vt 0.875000 0.500000
vt 0.625000 1.000000
vt 0.875000 0.750000
vn -1.0000 0.0000 0.0000
vn 0.0000 0.9397 -0.3420
vn 1.0000 0.0000 0.0000
vn 0.0000 -0.9397 0.3420
vn 0.0000 -0.3420 -0.9397
vn 0.0000 0.3420 0.9397
usemtl None
s off
f 2/1/1 3/2/1 1/3/1
f 4/4/2 7/5/2 3/2/2
f 8/6/3 5/7/3 7/5/3
f 6/8/4 1/9/4 5/7/4
f 7/5/5 1/10/5 3/11/5
f 4/12/6 6/8/6 8/6/6
f 2/1/1 4/4/1 3/2/1
f 4/4/2 8/6/2 7/5/2
f 8/6/3 6/8/3 5/7/3
f 6/8/4 2/13/4 1/9/4
f 7/5/5 5/7/5 1/10/5
f 4/12/6 2/14/6 6/8/6
o Cube_Cube.006
v -1.000000 -3.153697 8.260517
v -1.000000 -1.739483 6.846304
v 1.000000 -3.153697 8.260517
v 1.000000 -1.739483 6.846303
v -1.000000 -0.000000 11.414213
v -1.000000 -0.000000 8.585787
v 1.000000 0.000000 11.414213
v 1.000000 -0.000000 8.585787
v -1.000000 -3.715734 4.870052
v -1.000000 -5.129948 6.284266
v 1.000000 -5.129948 6.284266
v 1.000000 -3.715734 4.870052
v 1.000000 3.153696 8.260517
v 1.000000 1.739483 6.846304
v -1.000000 3.153696 8.260517
v -1.000000 1.739483 6.846304
v 1.000000 0.000000 11.414213
v 1.000000 -0.000000 8.585787
v -1.000000 -0.000000 11.414213
v -1.000000 0.000000 8.585787
v 1.000000 3.715734 4.870053
v 1.000000 5.129947 6.284266
v -1.000000 5.129947 6.284266
v -1.000000 3.715734 4.870053
vt 0.375000 0.088873
vt 0.625000 0.161127
vt 0.625000 0.250000
vt 0.375000 0.250000
vt 0.875000 0.500000
vt 0.625000 0.500000
vt 0.625000 0.500000
vt 0.875000 0.500000
vt 0.375000 0.661127
vt 0.625000 0.588873
vt 0.875000 0.588873
vt 0.375000 0.500000
vt 0.125000 0.500000
vt 0.125000 0.661127
vt 0.375000 0.250000
vt 0.625000 0.250000
vt 0.375000 0.500000
vt 0.125000 0.500000
vt 0.375000 0.088873
vt 0.625000 0.161127
vt 0.625000 0.250000
vt 0.375000 0.250000
vt 0.875000 0.500000
vt 0.625000 0.500000
vt 0.625000 0.500000
vt 0.875000 0.500000
vt 0.375000 0.661127
vt 0.625000 0.588873
vt 0.875000 0.588873
vt 0.375000 0.500000
vt 0.125000 0.500000
vt 0.125000 0.661127
vt 0.375000 0.250000
vt 0.625000 0.250000
vt 0.375000 0.500000
vt 0.125000 0.500000
vn -1.0000 0.0000 0.0000
vn -0.0000 0.7071 -0.7071
vn -0.0000 1.0000 -0.0000
vn 1.0000 0.0000 0.0000
vn 0.0000 -0.7071 0.7071
vn 0.0000 -0.7071 -0.7071
vn -0.0000 -1.0000 -0.0000
vn -0.0000 0.7071 0.7071
usemtl Material.001
s off
f 13/15/7 14/16/7 10/17/7 9/18/7
f 10/19/8 12/20/8 20/21/8 17/22/8
f 15/23/9 16/24/9 14/25/9 13/15/9
f 11/26/10 12/20/10 16/24/10 15/23/10
f 12/20/8 10/19/8 14/25/8 16/24/8
f 9/27/11 11/26/11 15/23/11 13/28/11
f 18/29/12 17/30/12 20/21/12 19/31/12
f 9/18/7 10/17/7 17/30/7 18/29/7
f 12/20/10 11/26/10 19/31/10 20/21/10
f 11/26/11 9/27/11 18/32/11 19/31/11
f 25/33/10 26/34/10 22/35/10 21/36/10
f 22/37/12 24/38/12 32/39/12 29/40/12
f 27/41/13 28/42/13 26/43/13 25/33/13
f 23/44/7 24/38/7 28/42/7 27/41/7
f 24/38/12 22/37/12 26/43/12 28/42/12
f 21/45/14 23/44/14 27/41/14 25/46/14
f 30/47/8 29/48/8 32/39/8 31/49/8
f 21/36/10 22/35/10 29/48/10 30/47/10
f 24/38/7 23/44/7 31/49/7 32/39/7
f 23/44/14 21/45/14 30/50/14 31/49/14
o Cube.001_Cube.003
v 1.000000 -3.153697 -8.260517
v 1.000000 -1.739483 -6.846304
v -1.000000 -3.153696 -8.260517
v -1.000000 -1.739483 -6.846303
v 1.000000 -0.000000 -11.414213
v 1.000000 -0.000000 -8.585787
v -1.000000 0.000000 -11.414213
v -1.000000 0.000000 -8.585787
v 1.000000 -3.715734 -4.870052
v 1.000000 -5.129948 -6.284266
v -1.000000 -5.129948 -6.284266
v -1.000000 -3.715734 -4.870052
v -1.000000 3.153696 -8.260517
v -1.000000 1.739483 -6.846304
v 1.000000 3.153696 -8.260517
v 1.000000 1.739483 -6.846304
v -1.000000 0.000000 -11.414213
v -1.000000 -0.000000 -8.585787
v 1.000000 -0.000000 -11.414213
v 1.000000 0.000000 -8.585787
v -1.000000 3.715734 -4.870053
v -1.000000 5.129947 -6.284266
v 1.000000 5.129947 -6.284266
v 1.000000 3.715734 -4.870053
vt 0.375000 0.088873
vt 0.625000 0.161127
vt 0.625000 0.250000
vt 0.375000 0.250000
vt 0.875000 0.500000
vt 0.625000 0.500000
vt 0.625000 0.500000
vt 0.875000 0.500000
vt 0.375000 0.661127
vt 0.625000 0.588873
vt 0.875000 0.588873
vt 0.375000 0.500000
vt 0.125000 0.500000
vt 0.125000 0.661127
vt 0.375000 0.250000
vt 0.625000 0.250000
vt 0.375000 0.500000
vt 0.125000 0.500000
vt 0.375000 0.088873
vt 0.625000 0.161127
vt 0.625000 0.250000
vt 0.375000 0.250000
vt 0.875000 0.500000
vt 0.625000 0.500000
vt 0.625000 0.500000
vt 0.875000 0.500000
vt 0.375000 0.661127
vt 0.625000 0.588873
vt 0.875000 0.588873
vt 0.375000 0.500000
vt 0.125000 0.500000
vt 0.125000 0.661127
vt 0.375000 0.250000
vt 0.625000 0.250000
vt 0.375000 0.500000
vt 0.125000 0.500000
vn 1.0000 -0.0000 0.0000
vn 0.0000 0.7071 0.7071
vn 0.0000 1.0000 0.0000
vn -1.0000 0.0000 0.0000
vn -0.0000 -0.7071 -0.7071
vn -0.0000 -0.7071 0.7071
vn 0.0000 -1.0000 0.0000
vn -0.0000 0.7071 -0.7071
usemtl None
s off
f 37/51/15 38/52/15 34/53/15 33/54/15
f 34/55/16 36/56/16 44/57/16 41/58/16
f 39/59/17 40/60/17 38/61/17 37/51/17
f 35/62/18 36/56/18 40/60/18 39/59/18
f 36/56/16 34/55/16 38/61/16 40/60/16
f 33/63/19 35/62/19 39/59/19 37/64/19
f 42/65/20 41/66/20 44/57/20 43/67/20
f 33/54/15 34/53/15 41/66/15 42/65/15
f 36/56/18 35/62/18 43/67/18 44/57/18
f 35/62/19 33/63/19 42/68/19 43/67/19
f 49/69/18 50/70/18 46/71/18 45/72/18
f 46/73/20 48/74/20 56/75/20 53/76/20
f 51/77/21 52/78/21 50/79/21 49/69/21
f 47/80/15 48/74/15 52/78/15 51/77/15
f 48/74/20 46/73/20 50/79/20 52/78/20
f 45/81/22 47/80/22 51/77/22 49/82/22
f 54/83/16 53/84/16 56/75/16 55/85/16
f 45/72/18 46/71/18 53/84/18 54/83/18
f 48/74/15 47/80/15 55/85/15 56/75/15
f 47/80/22 45/81/22 54/86/22 55/85/22
